<svg width="14" height="14" viewBox="0 0 14 14" fill="none" xmlns="http://www.w3.org/2000/svg">
<path d="M9.91667 3.5C10.561 3.5 11.0833 2.97767 11.0833 2.33333C11.0833 1.689 10.561 1.16667 9.91667 1.16667C9.27233 1.16667 8.75 1.689 8.75 2.33333C8.75 2.97767 9.27233 3.5 9.91667 3.5Z" fill="#7882A4"/>
<path d="M9.20325 6.39858C9.33716 6.59813 9.52924 6.75163 9.7534 6.83825C9.97756 6.92487 10.223 6.9404 10.4562 6.88275L12.3906 6.39917L12.1088 5.2675L10.1745 5.75108L9.37008 4.54533C9.19822 4.28783 8.93149 4.10875 8.62808 4.04717L6.38458 3.598C6.1336 3.54763 5.87301 3.58129 5.64307 3.69379C5.41312 3.80628 5.22661 3.99135 5.11233 4.22042L4.14517 6.15475L5.18875 6.67683L6.15592 4.74192L7.30333 4.97175L4.3365 9.91667H1.75V11.0833H4.3365C4.74367 11.0833 5.12692 10.8663 5.33692 10.5169L6.45575 8.65258L9.471 9.25575L10.5303 12.4343L11.6363 12.0651L10.5776 8.88708C10.5122 8.69197 10.3966 8.51753 10.2424 8.38132C10.0882 8.24512 9.90078 8.15196 9.69908 8.11125L7.92633 7.75717L8.96 6.034L9.20325 6.39858Z" fill="#7882A4"/>
</svg>
