<svg width="52" height="52" viewBox="0 0 52 52" fill="none" xmlns="http://www.w3.org/2000/svg">
<path d="M1.9334 26.888L11.1387 30.9173L37.6667 16.4453L21.6667 35.112L44.6001 45.5547C44.9923 45.7264 45.4201 45.8013 45.8473 45.7728C46.2745 45.7443 46.6886 45.6133 47.0545 45.391C47.4205 45.1687 47.7275 44.8615 47.9496 44.4954C48.1717 44.1294 48.3025 43.7152 48.3307 43.288L50.9974 3.288C51.0271 2.82502 50.9358 2.36229 50.7323 1.94534C50.5289 1.52838 50.2204 1.17157 49.8373 0.910024C49.4541 0.648476 49.0094 0.4912 48.547 0.453673C48.0846 0.416145 47.6204 0.49966 47.2001 0.695999L1.86674 22.0293C1.40431 22.2487 1.01463 22.5963 0.74403 23.0308C0.473435 23.4652 0.333317 23.9683 0.340339 24.4801C0.347362 24.9919 0.501229 25.4909 0.783642 25.9177C1.06606 26.3446 1.46513 26.6814 1.9334 26.888ZM16.3334 51.112L29.0694 44.936L16.3334 38.9947V51.112Z" fill="#886F6F"/>
</svg>
