<svg width="54" height="54" viewBox="0 0 54 54" fill="none" xmlns="http://www.w3.org/2000/svg">
<path d="M32.3333 0.333328H5.66659C2.73325 0.333328 0.333252 2.73333 0.333252 5.66666V32.3333H5.66659V5.66666H32.3333V0.333328ZM42.9999 11H16.3333C13.3999 11 10.9999 13.4 10.9999 16.3333V43H16.3333V16.3333H42.9999V11ZM48.3333 21.6667H26.9999C24.0666 21.6667 21.6666 24.0667 21.6666 27V48.3333C21.6666 51.2667 24.0666 53.6667 26.9999 53.6667H48.3333C51.2666 53.6667 53.6666 51.2667 53.6666 48.3333V27C53.6666 24.0667 51.2666 21.6667 48.3333 21.6667ZM48.3333 48.3333H26.9999V27H48.3333V48.3333Z" fill="#7882A4"/>
</svg>
