<svg width="14" height="14" viewBox="0 0 14 14" fill="none" xmlns="http://www.w3.org/2000/svg">
<path d="M11.9953 1.94833C11.9114 1.89123 11.8141 1.85695 11.7129 1.84887C11.6117 1.84079 11.5102 1.85919 11.4183 1.90225L1.50167 6.56891C1.4003 6.61668 1.31484 6.69263 1.2555 6.78769C1.19616 6.88274 1.16545 6.99288 1.16705 7.10492C1.16865 7.21697 1.20249 7.32618 1.26452 7.41951C1.32655 7.51283 1.41415 7.58631 1.51684 7.63116L4.66684 9.00958V12.9307L8.07117 10.4994L10.8502 11.7151C10.936 11.7527 11.0295 11.769 11.123 11.7628C11.2165 11.7566 11.307 11.7279 11.3871 11.6793C11.4671 11.6306 11.5343 11.5634 11.5829 11.4834C11.6315 11.4033 11.6601 11.3127 11.6663 11.2192L12.2496 2.46925C12.256 2.36782 12.2359 2.26648 12.1913 2.17515C12.1467 2.08383 12.0792 2.00567 11.9953 1.94833V1.94833ZM10.5568 10.3133L7.48317 8.96816L9.3335 5.34741L4.87159 7.82658L3.16126 7.07816L11.0193 3.37983L10.5568 10.3133V10.3133Z" fill="#C89595"/>
</svg>
