<svg width="14" height="14" viewBox="0 0 14 14" fill="none" xmlns="http://www.w3.org/2000/svg">
<path d="M1.99134 8.03717L1.1665 8.862L4.05342 10.0992L5.29125 12.9867L6.11609 12.1619L5.70367 10.0992L7.63625 8.16667L9.74209 12.6607L10.5232 11.8796L9.829 5.9745L11.4787 4.32425C11.5901 4.21663 11.679 4.08789 11.7401 3.94555C11.8013 3.80322 11.8335 3.65013 11.8348 3.49522C11.8361 3.34031 11.8066 3.18668 11.748 3.0433C11.6893 2.89992 11.6027 2.76966 11.4931 2.66012C11.3836 2.55058 11.2533 2.46395 11.11 2.40529C10.9666 2.34663 10.8129 2.31711 10.658 2.31846C10.5031 2.3198 10.35 2.35199 10.2077 2.41313C10.0654 2.47427 9.93663 2.56315 9.829 2.67458L8.13559 4.368L2.2305 3.67325L1.49259 4.41175L5.95159 6.55258L4.054 8.45016L1.99134 8.03717Z" fill="#886F6F"/>
</svg>
