<svg width="11" height="12" viewBox="0 0 11 12" fill="none" xmlns="http://www.w3.org/2000/svg">
<path d="M10.0792 2.3985L8.01716 0.33758C7.90845 0.228681 7.76109 0.167195 7.60722 0.16654C7.45334 0.165884 7.30546 0.226111 7.19583 0.33408L2.1395 5.31166C2.06068 5.38967 2.00548 5.48834 1.98025 5.59633L1.38291 8.18458L0.333496 9.5H1.98316L2.64933 8.84141L4.74233 8.35841C4.84733 8.33391 4.94358 8.28083 5.02058 8.20558L10.0763 3.22683C10.1312 3.17279 10.1748 3.10843 10.2047 3.03745C10.2345 2.96647 10.2501 2.89028 10.2503 2.81327C10.2506 2.73626 10.2356 2.65997 10.2063 2.58878C10.1769 2.51759 10.1337 2.45292 10.0792 2.3985ZM4.614 6.96775L3.37675 5.73108L7.60183 1.57133L8.83849 2.808L4.614 6.96775ZM0.333496 10.6667H9.66683V11.8333H0.333496V10.6667Z" fill="#C89595"/>
</svg>
