<svg width="118" height="118" viewBox="0 0 118 118" fill="none" xmlns="http://www.w3.org/2000/svg">
<path d="M58.9999 9.83325C31.8894 9.83325 9.83325 31.8894 9.83325 58.9999C9.83325 86.1104 31.8894 108.167 58.9999 108.167C86.1104 108.167 108.167 86.1104 108.167 58.9999C108.167 31.8894 86.1104 9.83325 58.9999 9.83325ZM58.9999 98.3333C37.3125 98.3333 19.6666 80.6873 19.6666 58.9999C19.6666 37.3125 37.3125 19.6666 58.9999 19.6666C80.6873 19.6666 98.3333 37.3125 98.3333 58.9999C98.3333 80.6873 80.6873 98.3333 58.9999 98.3333Z" fill="#FFECB3"/>
<path d="M44.25 83.5834L83.5833 59.0001L44.25 34.4167V83.5834Z" fill="#FFECB3"/>
</svg>
