<svg width="14" height="14" viewBox="0 0 14 14" fill="none" xmlns="http://www.w3.org/2000/svg">
<path d="M12.247 4.025C12.2373 3.92697 12.2029 3.833 12.147 3.75189C12.0911 3.67078 12.0155 3.60519 11.9273 3.56125L7.26068 1.22792C7.17963 1.18736 7.09026 1.16625 6.99963 1.16625C6.90901 1.16625 6.81964 1.18736 6.73859 1.22792L2.07193 3.56125C1.984 3.60544 1.90866 3.67111 1.85288 3.75218C1.7971 3.83325 1.76269 3.92709 1.75284 4.025C1.74643 4.08742 1.19226 10.3057 6.76309 12.7832C6.83753 12.8168 6.91826 12.8341 6.99993 12.8341C7.08159 12.8341 7.16232 12.8168 7.23676 12.7832C12.8076 10.3057 12.2534 4.088 12.247 4.025ZM6.99993 11.6066C3.05134 9.69792 2.86468 5.6245 2.89676 4.45375L6.99993 2.40217L11.1002 4.45258C11.1218 5.61283 10.9088 9.71308 6.99993 11.6066Z" fill="#886F6F"/>
<path d="M6.41681 7.34184L5.07923 6.00425L4.25439 6.82909L6.41681 8.9915L9.74589 5.66242L8.92106 4.83759L6.41681 7.34184Z" fill="#886F6F"/>
</svg>
