<svg width="55" height="54" viewBox="0 0 55 54" fill="none" xmlns="http://www.w3.org/2000/svg">
<path d="M46.4666 40.0667C47.5333 38.2 48.3333 36.0667 48.3333 33.6667C48.3333 27 42.9999 21.6667 36.3333 21.6667C29.6666 21.6667 24.3333 27 24.3333 33.6667C24.3333 40.3333 29.6666 45.6667 36.3333 45.6667C38.7333 45.6667 40.8666 44.8667 42.7333 43.8L51.2666 52.3333L54.9999 48.6L46.4666 40.0667ZM36.3333 40.3333C32.5999 40.3333 29.6666 37.4 29.6666 33.6667C29.6666 29.9333 32.5999 27 36.3333 27C40.0666 27 42.9999 29.9333 42.9999 33.6667C42.9999 37.4 40.0666 40.3333 36.3333 40.3333ZM26.9999 48.3333V53.6667C12.2799 53.6667 0.333252 41.72 0.333252 27C0.333252 12.28 12.2799 0.333328 26.9999 0.333328C39.9066 0.333328 50.6533 9.50666 53.1333 21.6667H47.6133C45.9066 15.1067 41.2133 9.74666 34.9999 7.24V8.33333C34.9999 11.2667 32.5999 13.6667 29.6666 13.6667H24.3333V19C24.3333 20.4667 23.1333 21.6667 21.6666 21.6667H16.3333V27H21.6666V35H18.9999L6.22659 22.2267C5.87992 23.7733 5.66659 25.3467 5.66659 27C5.66659 38.76 15.2399 48.3333 26.9999 48.3333Z" fill="#C89595"/>
</svg>
